<svg width="500" height="504" viewBox="0 0 500 504" fill="none" xmlns="http://www.w3.org/2000/svg">
<path d="M249.05 489.562C379.174 489.562 484.66 428.293 484.66 352.715C484.66 277.137 379.174 215.869 249.05 215.869C118.926 215.869 13.4399 277.137 13.4399 352.715C13.4399 428.293 118.926 489.562 249.05 489.562Z" fill="#F0F0F0"/>
<path d="M384.36 400.199C368.91 391.225 368.91 376.678 384.36 367.705C399.81 358.731 424.86 358.731 440.31 367.705C455.76 376.678 455.76 391.225 440.31 400.199C424.86 409.172 399.81 409.172 384.36 400.199Z" fill="#E0E0E0"/>
<path d="M70.1202 401.446L29.4802 377.845C27.1902 376.517 27.1902 374.354 29.4802 373.026L265.87 235.727C267.155 235.072 268.575 234.731 270.015 234.731C271.455 234.731 272.875 235.072 274.16 235.727L314.81 259.328C317.1 260.656 317.1 262.819 314.81 264.147L78.4202 401.446C77.1337 402.101 75.7121 402.442 74.2702 402.442C72.8283 402.442 71.4067 402.101 70.1202 401.446Z" fill="#E0E0E0"/>
<path d="M216.2 359.375L251.14 339.054C254.74 336.961 256.54 334.225 256.54 331.478C256.54 328.732 256.54 326.589 256.54 326.589L220.3 306.027C219.288 305.368 218.445 304.478 217.84 303.429C217.235 302.38 216.886 301.202 216.82 299.991V256.642L155.82 292.114V335.442C155.89 336.652 156.242 337.828 156.846 338.877C157.451 339.925 158.291 340.816 159.3 341.478L190.14 359.345C197.32 363.56 209 363.56 216.2 359.375Z" fill="#0B3178"/>
<g opacity="0.6">
<path opacity="0.6" d="M216.2 359.375L251.14 339.054C254.74 336.961 256.54 334.225 256.54 331.478C256.54 328.732 256.54 326.589 256.54 326.589L220.3 306.027C219.288 305.368 218.445 304.478 217.84 303.429C217.235 302.38 216.886 301.202 216.82 299.991V256.642L155.82 292.114V335.442C155.89 336.652 156.242 337.828 156.846 338.877C157.451 339.925 158.291 340.816 159.3 341.478L190.14 359.345C197.32 363.56 209 363.56 216.2 359.375Z" fill="black"/>
</g>
<path opacity="0.3" d="M170.45 343.118V347.987L159.27 341.498C158.261 340.837 157.421 339.946 156.819 338.897C156.216 337.848 155.867 336.672 155.8 335.462V292.114L167.42 285.363C167.66 288.331 167.92 291.399 168.17 294.417L160 299.145V332.998C160.065 334.209 160.414 335.387 161.019 336.436C161.624 337.485 162.467 338.376 163.48 339.034L170.45 343.118Z" fill="black"/>
<path d="M160 333.008C160.069 334.218 160.42 335.395 161.024 336.443C161.629 337.492 162.47 338.383 163.48 339.044L190.1 354.476C197.3 358.651 208.98 358.661 216.19 354.476L251.19 334.154C258.4 329.969 258.4 323.189 251.19 319.004L224.55 303.572C223.542 302.909 222.703 302.018 222.101 300.97C221.498 299.921 221.148 298.745 221.08 297.536V263.674L160.08 299.146L160 333.008Z" fill="#0B3178"/>
<path opacity="0.3" d="M160 333.008C160.069 334.218 160.42 335.395 161.024 336.443C161.629 337.492 162.47 338.383 163.48 339.044L190.1 354.476C197.3 358.651 208.98 358.661 216.19 354.476L251.19 334.154C258.4 329.969 258.4 323.189 251.19 319.004L224.55 303.572C223.542 302.909 222.703 302.018 222.101 300.97C221.498 299.921 221.148 298.745 221.08 297.536V263.674L160.08 299.146L160 333.008Z" fill="black"/>
<path opacity="0.5" d="M231.6 307.707L224.51 303.592C223.502 302.929 222.663 302.038 222.061 300.99C221.458 299.941 221.108 298.765 221.04 297.556V263.674L160.04 299.146V333.008C160.109 334.218 160.46 335.395 161.064 336.443C161.669 337.492 162.51 338.383 163.52 339.044L170.52 343.068L231.6 307.707Z" fill="black"/>
<path d="M256.55 326.599V331.489C256.55 334.235 254.74 336.961 251.15 339.064L216.15 359.375C212.32 361.432 208.042 362.5 203.7 362.483V357.614C208.042 357.631 212.32 356.563 216.15 354.506L251.15 334.175C254.74 332.092 256.55 329.346 256.55 326.599Z" fill="#0B3178"/>
<path opacity="0.5" d="M256.55 326.599V331.489C256.55 334.235 254.74 336.961 251.15 339.064L216.15 359.375C212.32 361.432 208.042 362.5 203.7 362.483V357.614C208.042 357.631 212.32 356.563 216.15 354.506L251.15 334.175C254.74 332.092 256.55 329.346 256.55 326.599Z" fill="black"/>
<path d="M62 375.089C63.3187 375.729 64.7686 376.05 66.2329 376.023C67.6971 375.997 69.1348 375.625 70.43 374.938L306.43 237.87C307.695 237.04 308.749 235.921 309.504 234.605C310.26 233.289 310.697 231.812 310.78 230.295V38.2288C310.735 36.7523 310.344 35.3075 309.638 34.0121C308.932 32.7167 307.933 31.6073 306.72 30.7743C305.403 30.1328 303.954 29.8131 302.491 29.841C301.028 29.869 299.592 30.2439 298.3 30.9353L62.3 168.043C61.039 168.879 59.9921 170.002 59.2449 171.322C58.4976 172.642 58.071 174.121 58 175.639V367.674C58.0446 369.139 58.4297 370.572 59.1243 371.86C59.819 373.147 60.8038 374.253 62 375.089Z" fill="#0B3178"/>
<path d="M70.4599 374.928L306.46 237.86C307.727 237.031 308.781 235.913 309.537 234.597C310.293 233.28 310.729 231.803 310.81 230.285V38.2288C310.81 35.4422 308.86 34.3054 306.46 35.7038L70.4599 172.772C69.1939 173.601 68.1402 174.72 67.3844 176.036C66.6286 177.352 66.1919 178.829 66.1099 180.347V372.403C66.1099 375.189 68.0599 376.326 70.4599 374.928Z" fill="#0B3178"/>
<path opacity="0.5" d="M70.4599 374.928L306.46 237.86C307.727 237.031 308.781 235.913 309.537 234.597C310.293 233.28 310.729 231.803 310.81 230.285V38.2288C310.81 35.4422 308.86 34.3054 306.46 35.7038L70.4599 172.772C69.1939 173.601 68.1402 174.72 67.3844 176.036C66.6286 177.352 66.1919 178.829 66.1099 180.347V372.403C66.1099 375.189 68.0599 376.326 70.4599 374.928Z" fill="black"/>
<path d="M69.82 379.917C68.5824 380.461 67.2425 380.728 65.8924 380.7C64.5424 380.672 63.2144 380.35 62 379.757C60.8012 378.919 59.8146 377.81 59.1199 376.519C58.4251 375.227 58.0415 373.79 58 372.322V354.838L66.15 359.586V377.071C66.1 379.616 67.71 380.773 69.82 379.917Z" fill="#0B3178"/>
<path opacity="0.5" d="M69.82 379.917C68.5824 380.461 67.2425 380.728 65.8924 380.7C64.5424 380.672 63.2144 380.35 62 379.757C60.8012 378.919 59.8146 377.81 59.1199 376.519C58.4251 375.227 58.0415 373.79 58 372.322V354.838L66.15 359.586V377.071C66.1 379.616 67.71 380.773 69.82 379.917Z" fill="black"/>
<path d="M66.1001 359.586V377.071C66.1001 379.857 68.1001 380.984 70.4501 379.596L306.45 242.528C307.71 241.701 308.76 240.589 309.516 239.281C310.271 237.972 310.711 236.503 310.8 234.993V217.428L66.1001 359.586Z" fill="#0B3178"/>
<path opacity="0.3" d="M66.1099 359.546V377.071C66.1099 379.857 68.1099 380.984 70.4599 379.596L306.46 242.528C307.718 241.7 308.766 240.588 309.52 239.279C310.274 237.971 310.712 236.503 310.8 234.993V217.428L66.1099 359.546Z" fill="black"/>
<path d="M74.26 337.605V183.073C74.3066 182.163 74.5663 181.276 75.0182 180.486C75.47 179.696 76.1011 179.024 76.86 178.526L300 48.8823C301.44 48.0473 302.61 48.7213 302.61 50.3913V205.004C302.562 205.915 302.3 206.802 301.846 207.592C301.393 208.382 300.76 209.053 300 209.551L76.87 339.164C75.43 339.999 74.26 339.315 74.26 337.605Z" fill="#0B3178"/>
<path d="M74.26 337.605V183.073C74.3066 182.163 74.5663 181.276 75.0182 180.486C75.47 179.696 76.1011 179.024 76.86 178.526L300 48.8823C301.44 48.0473 302.61 48.7213 302.61 50.3913V205.004C302.562 205.915 302.3 206.802 301.846 207.592C301.393 208.382 300.76 209.053 300 209.551L76.87 339.164C75.43 339.999 74.26 339.315 74.26 337.605Z" fill="#263238"/>
<path d="M188.45 294.075C187.262 294.853 186.274 295.901 185.565 297.135C184.856 298.369 184.446 299.754 184.37 301.178C184.37 303.793 186.2 304.86 188.45 303.552C189.639 302.774 190.629 301.724 191.338 300.488C192.047 299.252 192.455 297.865 192.53 296.439C192.53 293.824 190.7 292.768 188.45 294.075Z" fill="#0B3178"/>
<path opacity="0.7" d="M67.39 176.021C66.615 177.331 66.172 178.814 66.1 180.337V359.586L58 354.838V175.639C58.0525 174.11 58.4931 172.621 59.28 171.313L67.39 176.021Z" fill="black"/>
<path opacity="0.3" d="M310.76 37.5042C310.45 35.2508 308.64 34.4862 306.45 35.7035L70.4502 172.771C69.1706 173.576 68.1145 174.694 67.3802 176.021L59.2202 171.282C59.9594 169.956 61.0186 168.839 62.3002 168.033L298.3 30.9753C299.594 30.2838 301.031 29.9089 302.496 29.881C303.961 29.853 305.411 30.1728 306.73 30.8143C307.839 31.5742 308.772 32.5647 309.468 33.7189C310.163 34.873 310.604 36.1639 310.76 37.5042Z" fill="black"/>
<path d="M323.49 61.1454C323.139 60.9685 322.747 60.8909 322.356 60.921C321.965 60.9511 321.59 61.0878 321.27 61.3165L98.59 190.729C97.7113 191.313 96.9819 192.098 96.4607 193.019C95.9395 193.94 95.6412 194.972 95.59 196.03V349.617C95.5588 350.135 95.6611 350.653 95.8871 351.12C96.1131 351.587 96.4551 351.987 96.88 352.283C97.37 352.554 99.99 354.083 100.77 354.506C101.046 354.647 101.354 354.712 101.663 354.695C101.973 354.677 102.272 354.577 102.53 354.405L325.16 224.993C326.039 224.408 326.768 223.624 327.289 222.703C327.81 221.782 328.109 220.75 328.16 219.691V65.3103C328.205 64.9202 328.14 64.5252 327.974 64.1698C327.808 63.8144 327.547 63.5126 327.22 63.2983C326.72 62.9663 324.05 61.4774 323.49 61.1454Z" fill="#0B3178"/>
<path d="M102.48 192.902L325.17 63.5398C326.85 62.5338 328.17 63.3588 328.17 65.3104V219.692C328.119 220.75 327.82 221.782 327.299 222.703C326.778 223.624 326.049 224.408 325.17 224.993L102.48 354.405C100.8 355.411 99.48 353.792 99.48 351.84V198.203C99.5328 197.145 99.8317 196.114 100.353 195.193C100.874 194.273 101.602 193.488 102.48 192.902Z" fill="#FAFAFA"/>
<path d="M326.53 64.1233C327.12 64.1233 327.21 64.8678 327.21 65.3104V219.691C327.156 220.578 326.898 221.439 326.455 222.208C326.012 222.976 325.398 223.63 324.66 224.118L102 353.53C101.851 353.628 101.678 353.683 101.5 353.691C100.94 353.691 100.5 352.826 100.5 351.84V198.203C100.548 197.317 100.799 196.454 101.232 195.681C101.666 194.908 102.271 194.246 103 193.747L325.67 64.405C325.928 64.2378 326.224 64.1407 326.53 64.1233ZM326.53 63.1173C326.048 63.1379 325.58 63.2835 325.17 63.5398L102.48 192.902C101.602 193.488 100.874 194.273 100.353 195.193C99.8317 196.114 99.5328 197.145 99.48 198.203V351.84C99.48 353.389 100.34 354.697 101.48 354.697C101.833 354.69 102.178 354.59 102.48 354.405L325.16 224.993C326.039 224.408 326.768 223.624 327.289 222.703C327.81 221.782 328.109 220.75 328.16 219.691V65.3104C328.16 63.9221 327.48 63.1173 326.48 63.1173H326.53Z" fill="#E0E0E0"/>
<path d="M96.8201 352.283C97.1501 352.454 99.5201 353.812 100.56 354.415C100.187 354.104 99.8908 353.708 99.6964 353.261C99.5019 352.814 99.4141 352.327 99.4401 351.84V208.233L95.5401 205.939V349.617C95.5078 350.134 95.6086 350.651 95.8328 351.118C96.057 351.585 96.397 351.986 96.8201 352.283Z" fill="#F0F0F0"/>
<path d="M328.21 65.2802C328.21 63.3486 326.84 62.5639 325.21 63.5398L102.48 192.902C101.602 193.488 100.874 194.272 100.353 195.193C99.8317 196.114 99.5328 197.145 99.48 198.203V208.263L328.21 75.3402V65.2802Z" fill="#0B3178"/>
<g opacity="0.4">
<path opacity="0.4" d="M325.17 63.5398L102.48 192.892C101.586 193.459 100.85 194.244 100.34 195.175L96.47 192.912C96.9791 192.013 97.7091 191.262 98.59 190.729L321.27 61.3165C321.589 61.0863 321.964 60.9478 322.355 60.9159C322.746 60.884 323.138 60.9599 323.49 61.1354C324.03 61.4775 326.56 62.9161 327.21 63.2682C326.874 63.1427 326.512 63.1019 326.156 63.1492C325.801 63.1966 325.462 63.3307 325.17 63.5398Z" fill="white"/>
</g>
<path opacity="0.15" d="M95.54 205.949V195.98C95.5811 194.893 95.9015 193.836 96.47 192.912L100.35 195.165C99.7897 196.074 99.4759 197.114 99.44 198.183V208.243L95.54 205.949Z" fill="black"/>
<path d="M281.25 181.091L147.88 258.553C147.232 258.977 146.692 259.548 146.304 260.221C145.917 260.894 145.692 261.65 145.65 262.426V300.896C145.692 301.673 145.917 302.428 146.304 303.101C146.692 303.774 147.232 304.346 147.88 304.769L151.77 307.023C152.461 307.374 153.225 307.558 154 307.558C154.775 307.558 155.539 307.374 156.23 307.023L289.58 229.56C290.229 229.135 290.769 228.561 291.156 227.887C291.544 227.212 291.768 226.455 291.81 225.677V187.198C291.768 186.421 291.544 185.665 291.156 184.992C290.769 184.319 290.229 183.748 289.58 183.324L285.68 181.071C284.992 180.725 284.232 180.546 283.463 180.55C282.693 180.553 281.935 180.739 281.25 181.091Z" fill="#0B3178"/>
<path opacity="0.5" d="M291.81 186.856C291.65 185.699 290.72 185.276 289.6 185.93L156.23 263.392C155.572 263.803 155.031 264.379 154.66 265.062L146.31 260.213C146.684 259.54 147.221 258.973 147.87 258.563L281.25 181.101C281.939 180.749 282.702 180.565 283.475 180.565C284.248 180.565 285.011 180.749 285.7 181.101L289.6 183.355C290.195 183.747 290.699 184.262 291.08 184.865C291.462 185.469 291.71 186.147 291.81 186.856Z" fill="white"/>
<path d="M155.85 307.214C155.197 307.473 154.497 307.59 153.796 307.559C153.095 307.528 152.408 307.348 151.78 307.033L147.88 304.779C147.233 304.355 146.694 303.783 146.306 303.11C145.919 302.437 145.694 301.682 145.65 300.906V262.437C145.68 261.651 145.907 260.886 146.31 260.213L154.66 265.062C154.254 265.727 154.027 266.486 154 267.265V305.745C154 307.023 154.8 307.616 155.85 307.214Z" fill="#263238"/>
<path d="M156.23 263.392L289.6 185.93C290.83 185.216 291.83 185.789 291.83 187.218V225.697C291.788 226.475 291.564 227.232 291.176 227.907C290.789 228.582 290.249 229.155 289.6 229.58L156.25 307.043C155.02 307.757 154.02 307.173 154.02 305.745V267.275C154.06 266.499 154.281 265.743 154.665 265.069C155.049 264.394 155.585 263.82 156.23 263.392Z" fill="#0B3178"/>
<path d="M245.89 201.634L147.89 258.563C147.241 258.973 146.704 259.54 146.33 260.213L154.68 265.062C155.052 264.379 155.592 263.803 156.25 263.392L254.25 206.473L245.89 201.634Z" fill="#455A64"/>
<path d="M254.23 206.473L156.23 263.392C155.581 263.818 155.041 264.391 154.654 265.066C154.266 265.74 154.042 266.497 154 267.275V305.735C154 307.163 155 307.747 156.23 307.033L254.23 250.113V206.473Z" fill="#37474F"/>
<path d="M178.83 268.764L229.4 239.399C231.49 238.182 233.19 239.047 233.19 241.331C233.097 242.613 232.704 243.855 232.043 244.957C231.383 246.058 230.474 246.987 229.39 247.668L178.83 277.044C176.74 278.261 175.03 277.396 175.03 275.112C175.124 273.828 175.517 272.585 176.178 271.482C176.838 270.38 177.746 269.449 178.83 268.764Z" fill="#0B3178"/>
<path d="M277.87 226.341L268.16 231.975L269.67 218.273C268.5 217.649 267.76 216.13 267.76 213.947C267.76 210.054 270.12 205.537 273.02 203.887C275.92 202.237 278.27 203.988 278.27 207.911C278.21 210.22 277.555 212.473 276.37 214.45L277.87 226.341Z" fill="#455A64"/>
<path d="M277.88 226.341L269.33 221.382L268.16 231.985L277.88 226.341Z" fill="#37474F"/>
<path d="M273 203.857C270.885 205.294 269.309 207.401 268.52 209.843L276.35 214.39C277.535 212.412 278.19 210.159 278.25 207.851C278.27 203.958 275.92 202.177 273 203.857Z" fill="#37474F"/>
<path d="M225.8 158.235C222.47 156.303 217.88 156.575 212.8 159.522C202.66 165.418 194.44 179.733 194.44 191.513C194.44 197.429 196.52 201.573 199.86 203.485L206.33 207.267C209.65 209.199 214.24 208.917 219.33 205.97C229.47 200.084 237.69 185.759 237.69 173.979C237.69 168.094 235.63 163.919 232.31 162.037" fill="#0B3178"/>
<path d="M219.32 163.315C209.18 169.21 200.96 183.536 200.96 195.306C200.96 207.076 209.18 211.865 219.32 205.97C229.46 200.074 237.69 185.759 237.68 173.979C237.67 162.198 229.45 157.43 219.32 163.315Z" fill="#0B3178"/>
<path d="M229.45 189.451V190.799C227.021 195.161 223.537 198.836 219.32 201.483C215.37 203.766 211.8 204.018 209.18 202.559V199.783C209.314 196.894 210.134 194.079 211.571 191.575C213.008 189.07 215.021 186.948 217.44 185.387L220.11 183.837C222.47 182.469 224.77 182.288 226.57 183.345C228.37 184.401 229.45 186.624 229.45 189.451Z" fill="#0B3178"/>
<path opacity="0.4" d="M225.8 158.235L232.3 162.038C228.98 160.096 224.39 160.368 219.3 163.315C212.66 167.178 206.84 174.653 203.62 182.661L197.11 178.868C200.34 170.82 206.11 163.386 212.79 159.523C217.89 156.585 222.48 156.303 225.8 158.235Z" fill="white"/>
<path opacity="0.2" d="M206.1 207.116L199.87 203.485C196.53 201.573 194.45 197.449 194.45 191.513L200.96 195.316C201 201.05 202.92 205.135 206.1 207.116Z" fill="black"/>
<path opacity="0.1" d="M197.13 178.868L203.64 182.661C201.972 186.669 201.076 190.961 201 195.306L194.49 191.503C194.57 187.162 195.466 182.875 197.13 178.868Z" fill="black"/>
<path d="M217 183.204C216.38 183.21 215.769 183.051 215.23 182.741C214.581 182.306 214.061 181.702 213.724 180.993C213.388 180.285 213.248 179.499 213.32 178.717C213.405 176.884 213.925 175.098 214.837 173.509C215.748 171.92 217.025 170.573 218.56 169.582C219.177 169.087 219.927 168.791 220.714 168.732C221.501 168.673 222.287 168.854 222.97 169.252C223.653 169.65 224.201 170.245 224.541 170.961C224.882 171.677 225 172.48 224.88 173.264C224.794 175.097 224.273 176.882 223.361 178.471C222.45 180.06 221.174 181.407 219.64 182.399C218.846 182.897 217.935 183.175 217 183.204Z" fill="white"/>
<path d="M226.57 183.335C224.77 182.278 222.47 182.459 220.11 183.827L217.44 185.377C215.019 186.939 213.006 189.063 211.569 191.569C210.132 194.076 209.313 196.892 209.18 199.783V202.569C211.8 204.028 215.37 203.777 219.32 201.493C223.537 198.846 227.021 195.171 229.45 190.809V189.461C229.45 186.624 228.41 184.401 226.57 183.335Z" fill="white"/>
<path d="M432.15 357.373C432.15 357.373 433.48 345.623 439.29 336.498C445.1 327.374 453.08 321.69 460.53 321.097C467.98 320.503 474 327.404 466.03 332.163C458.06 336.921 443.9 341.73 437.38 359.435L432.15 357.373Z" fill="#0B3178"/>
<path opacity="0.1" d="M432.15 357.373C432.15 357.373 433.48 345.623 439.29 336.498C445.1 327.374 453.08 321.69 460.53 321.097C467.98 320.503 474 327.404 466.03 332.163C458.06 336.921 443.9 341.73 437.38 359.435L432.15 357.373Z" fill="black"/>
<path d="M434.34 354.315H434.26C434.162 354.275 434.084 354.197 434.043 354.099C434.001 354.001 434 353.89 434.04 353.792C441.9 334.326 456.86 326.187 463.68 324.618C463.731 324.606 463.784 324.604 463.836 324.613C463.888 324.622 463.938 324.64 463.982 324.669C464.027 324.697 464.065 324.733 464.096 324.776C464.126 324.819 464.148 324.868 464.16 324.919C464.172 324.971 464.173 325.024 464.165 325.076C464.156 325.129 464.137 325.179 464.109 325.223C464.082 325.268 464.045 325.307 464.002 325.338C463.96 325.368 463.911 325.39 463.86 325.402C457.18 326.952 442.51 334.939 434.78 354.103C434.741 354.184 434.677 354.248 434.597 354.287C434.517 354.325 434.426 354.335 434.34 354.315Z" fill="white"/>
<path d="M474.12 354.546C473.45 356.075 471.79 356.88 470.25 357.504C468.71 358.128 467.03 358.802 466.19 360.25C464.51 363.168 467.27 367.292 465.47 370.119C465.046 370.688 464.512 371.165 463.901 371.521C463.289 371.877 462.612 372.105 461.91 372.191C460.76 372.403 459.59 372.403 458.43 372.503C457.874 372.496 457.32 372.452 456.77 372.372C455.154 372.01 453.464 372.19 451.96 372.886C449.65 374.193 448.96 377.121 447.54 379.384C446.672 380.717 445.529 381.846 444.188 382.693C442.847 383.54 441.34 384.086 439.77 384.294C438.77 384.424 436.77 384.616 435.77 384.022C435.692 383.983 435.618 383.936 435.55 383.881C435.4 383.72 435.22 383.509 435.14 383.398C435.135 383.375 435.135 383.351 435.14 383.328C434.73 381.809 435.4 380.239 435.43 378.67V378.388C435.36 376.568 435.31 374.757 435.27 372.946C435.183 369.593 435.15 366.239 435.17 362.886C435.17 360.713 434.93 358.339 435.85 356.297C436.85 354.043 439.37 353.993 440.32 351.79C440.7 350.904 440.9 349.969 441.27 349.073C441.842 347.772 442.758 346.653 443.918 345.839C445.078 345.025 446.438 344.546 447.85 344.456C452.24 344.235 456.17 347.806 460.56 347.474C461.69 347.383 462.8 347.031 463.92 346.83C467.47 346.156 471.58 347.172 473.58 350.2C474.019 350.824 474.298 351.547 474.392 352.305C474.486 353.063 474.393 353.833 474.12 354.546Z" fill="#0B3178"/>
<path d="M434.7 376.356C434.605 376.328 434.525 376.264 434.477 376.178C434.428 376.092 434.415 375.99 434.44 375.894C440.5 353.017 464.44 349.737 470.07 350.12C470.119 350.122 470.168 350.135 470.213 350.157C470.257 350.178 470.297 350.209 470.33 350.246C470.362 350.284 470.387 350.328 470.403 350.375C470.418 350.422 470.424 350.472 470.42 350.522C470.41 350.62 470.363 350.71 470.288 350.774C470.214 350.838 470.118 350.87 470.02 350.864C464.53 350.472 441.09 353.701 435.16 376.095C435.132 376.19 435.068 376.27 434.983 376.319C434.897 376.368 434.795 376.381 434.7 376.356Z" fill="white"/>
<path d="M461.33 364.767C461.254 364.756 461.184 364.721 461.13 364.666C458.917 362.737 456.307 361.322 453.488 360.524C450.668 359.726 447.709 359.564 444.82 360.049C444.722 360.058 444.625 360.03 444.547 359.97C444.47 359.911 444.417 359.824 444.4 359.727C444.385 359.629 444.41 359.528 444.468 359.447C444.525 359.367 444.612 359.312 444.71 359.294C447.723 358.79 450.809 358.962 453.749 359.799C456.688 360.635 459.406 362.116 461.71 364.133C461.745 364.168 461.773 364.209 461.793 364.255C461.812 364.301 461.822 364.35 461.822 364.4C461.822 364.45 461.812 364.499 461.793 364.545C461.773 364.59 461.745 364.632 461.71 364.666C461.665 364.721 461.604 364.76 461.536 364.778C461.468 364.796 461.396 364.792 461.33 364.767Z" fill="white"/>
<path d="M377.12 81.0744L380.3 82.3017V75.2597C380.3 69.6664 384.73 68.3284 389.54 71.1251C394.36 73.9217 398.26 80.7123 398.26 86.3056V87.3116C398.93 87.1056 399.638 87.0547 400.331 87.1627C401.024 87.2707 401.683 87.5348 402.26 87.9354C404.086 89.1334 405.606 90.7481 406.696 92.6482C407.785 94.5483 408.414 96.6802 408.53 98.8706V99.3334L412.97 101.909C414.171 102.698 415.171 103.76 415.888 105.009C416.606 106.259 417.021 107.661 417.1 109.102C417.1 111.757 415.25 112.834 412.97 111.506L377.12 90.6717C375.918 89.8847 374.918 88.8228 374.202 87.5727C373.486 86.3225 373.074 84.9197 373 83.4788C373 80.833 374.83 79.7566 377.12 81.0744Z" fill="#E6E6E6"/>
<path d="M419.71 75.5012L425.48 78.8512C425.449 78.5975 425.432 78.3422 425.43 78.0866V76.4066C425.43 73.3886 427.51 72.2015 430.09 73.7004C431.199 74.3833 432.147 75.2997 432.87 76.3865C433.29 72.624 436.23 71.2257 439.79 73.288C441.825 74.6196 443.518 76.4148 444.735 78.5279C445.951 80.641 446.655 83.0126 446.79 85.4506V87.9656C446.816 88.9704 446.614 89.9681 446.2 90.883L451 93.6595C451.748 94.1586 452.369 94.8273 452.814 95.6117C453.259 96.3962 453.514 97.2746 453.56 98.1765C453.56 99.8364 452.4 100.51 450.97 99.6855L419.71 81.5774C418.954 81.0819 418.325 80.4134 417.875 79.6266C417.425 78.8398 417.166 77.957 417.12 77.0504C417.12 75.3503 418.28 74.6763 419.71 75.5012Z" fill="#E6E6E6"/>
<path d="M397.37 228.182C393.17 235.325 389.13 241.532 386.29 244.51C380.9 247.025 368.24 250.908 363.29 251.552C362.42 251.663 361.54 251.456 360.81 250.968C358.86 249.68 357.35 249.469 355.3 248.755C353.69 248.202 353.01 247.427 352.71 247.749C352.4 248.114 352.244 248.587 352.276 249.066C352.308 249.546 352.525 249.993 352.88 250.314C353.649 251.049 354.502 251.691 355.42 252.226C353.224 252.774 350.934 252.815 348.72 252.346C344.43 251.21 342.41 253.282 345.31 257.97C346.31 259.64 350.43 262.326 358.71 261.602C361.664 261.441 364.606 261.105 367.52 260.596C375.46 258.885 384.29 257.236 389.72 255.566C391.74 254.767 393.547 253.506 395 251.884C404.13 241.411 407.16 233.947 411.16 227.166L410.82 216.1C404.34 215.879 400.88 222.207 397.37 228.182Z" fill="#FFA8A7"/>
<path d="M411.93 215.879C410.051 215.613 408.136 215.869 406.391 216.619C404.646 217.369 403.138 218.585 402.03 220.134C397.59 225.858 389.73 239.6 389.73 239.6C389.73 239.6 392.3 246.491 399.24 247.648L410.39 232.498C410.39 232.498 415.67 221.975 411.93 215.879Z" fill="#455A64"/>
<path d="M436.04 370.34H428.77V383.378H436.04V370.34Z" fill="#FFA8A7"/>
<path d="M410.84 369.646L403.58 369.908L403.21 356.105L410.84 355.844V369.646Z" fill="#FFA8A7"/>
<path d="M437.06 257.477C437.06 264.74 436 323.259 436 323.259C436.16 325.352 438 329.215 437.63 337.253C437.08 348.168 436.35 376.859 436.35 376.859C435.102 377.502 433.725 377.85 432.323 377.878C430.922 377.906 429.532 377.613 428.26 377.02C428.26 377.02 422.36 336.78 421.06 326.006C419.92 316.56 417 285.293 417 285.293L413.07 322.253C413.903 326.219 414.206 330.279 413.97 334.326C413.63 339.356 411.29 365.391 411.29 365.391C410.034 366.136 408.626 366.584 407.172 366.701C405.719 366.818 404.258 366.6 402.9 366.065C402.9 366.065 398.76 326.831 398.68 322.223C398.58 316.992 401.1 257.417 401.1 257.417L437.06 257.477Z" fill="#37474F"/>
<path d="M428.77 379.616V378.529C428.07 378.841 426.46 385.3 423.57 388.056C421.28 390.249 418.16 392.774 417.36 395.219C416.56 397.663 421.71 399.162 423.86 398.77C426.34 398.307 430.66 396.466 431.74 394.746C432.82 393.026 433.33 390.531 434.21 389.283C435.09 388.036 437.12 386.648 437.59 385.199C437.737 383.844 437.597 382.472 437.18 381.175C436.84 379.827 436.48 378.348 436.04 378.479V379.304C435.015 380.15 433.726 380.606 432.4 380.592C431.34 380.682 428.76 380.461 428.77 379.616Z" fill="#263238"/>
<path d="M403.5 367.554C403.12 367.554 402.81 368.127 401.98 369.073C400.746 370.379 399.302 371.467 397.71 372.292C394.99 373.721 389.71 375.914 387.3 377.05C385.8 377.755 385.87 379.646 387.42 380.722C388.97 381.799 392.7 382.573 397.18 381.527C399.62 380.954 402.8 378.59 404.82 378.72C406.84 378.851 410.59 378.811 412.08 377.714C413.57 376.618 412.97 374.344 412.55 372.383C412.09 370.23 411.55 366.88 410.84 367.031V367.785C409.97 369.173 405.46 369.737 403.54 368.721L403.5 367.554Z" fill="#263238"/>
<path d="M417 285.293C413.218 284.048 409.761 281.968 406.88 279.207C406.88 279.207 408.88 283.04 414.64 286.611L413.4 319.618L417 285.293Z" fill="#263238"/>
<path d="M433 216.945C433 216.945 439 218.333 438.57 229.238L437.32 246.592V272.647C431.98 278.744 408.32 278.301 400.17 272.165C400.17 272.165 401.09 241.331 401.64 229.46C402.03 221.029 403.96 216.784 412.2 215.859L422.33 216.301L433 216.945Z" fill="#0B3178"/>
<path d="M425.36 194.29C425.395 195.75 425.141 197.202 424.615 198.563C424.089 199.925 423.301 201.167 422.295 202.22C421.289 203.273 420.086 204.116 418.755 204.699C417.424 205.282 415.992 205.594 414.54 205.618C408.54 205.618 405.02 200.407 403.72 194.29C401.32 183.093 408.56 182.952 414.54 182.952C417.469 183.013 420.254 184.242 422.283 186.368C424.312 188.494 425.419 191.343 425.36 194.29Z" fill="#263238"/>
<path d="M430.88 198.867C430.88 198.867 429.22 207.036 428.55 208.384C428.129 209.195 427.412 209.812 426.55 210.104L426.67 204.36L430.88 198.867Z" fill="#263238"/>
<path d="M428.79 187.167C428.79 187.167 429.98 186.866 431.25 188.858C432.33 190.558 432.58 194.38 430.88 198.918L427.75 199.3L428.79 187.167Z" fill="#263238"/>
<path d="M429.94 188.827L433.78 188.898C433.806 188.648 433.781 188.396 433.706 188.156C433.63 187.917 433.507 187.696 433.342 187.507C433.178 187.318 432.976 187.165 432.751 187.058C432.525 186.951 432.279 186.893 432.03 186.886C431.505 186.893 431.001 187.096 430.616 187.454C430.23 187.812 429.989 188.301 429.94 188.827Z" fill="#263238"/>
<path d="M430.41 187.912L433.25 185.166C433.086 184.971 432.885 184.814 432.657 184.702C432.43 184.59 432.182 184.527 431.929 184.517C431.676 184.507 431.424 184.549 431.189 184.642C430.953 184.734 430.739 184.875 430.56 185.055C430.183 185.425 429.959 185.925 429.931 186.454C429.903 186.983 430.074 187.504 430.41 187.912Z" fill="#263238"/>
<path d="M426.81 199.25C427.44 199.642 428.33 198.384 429.11 197.529C429.89 196.674 432.31 195.889 433.57 198.666C434.83 201.443 432.68 204.189 430.88 205.094C427.65 206.704 426.63 204.36 426.63 204.36L426.36 217.297C421.82 224.339 411.52 224.118 415.23 216.955V213.022C413.704 213.277 412.154 213.358 410.61 213.263C408.09 212.861 406.51 210.778 405.74 207.921C404.52 203.334 404.05 199.632 405.09 190.608C406.23 180.729 417.21 180.618 423.09 184.572C428.97 188.526 426.81 199.25 426.81 199.25Z" fill="#FFA8A7"/>
<path d="M413.13 189.069C415.75 188.807 418.34 188.264 420.97 188.063C421.537 187.994 422.112 188.021 422.67 188.143C424.67 188.697 424.43 191.051 424.75 192.69C425.3 195.527 425.75 200.326 426.81 200.346C427.13 200.346 428.33 198.264 429.11 197.519C429.539 196.878 429.781 196.129 429.81 195.356C430.01 194.189 430.11 192.992 430.2 191.805C430.28 190.799 430.38 189.793 430.38 188.787C430.426 187.65 430.335 186.512 430.11 185.397C429.859 184.448 429.378 183.577 428.71 182.862L428.51 182.64C427.192 181.254 425.592 180.17 423.82 179.462C421.27 178.501 418.596 177.914 415.88 177.721C413.168 177.528 410.467 177.192 407.79 176.715C407.637 176.67 407.474 176.67 407.32 176.715C407.212 176.776 407.12 176.863 407.053 176.968C406.987 177.074 406.948 177.194 406.94 177.319C406.83 177.944 406.899 178.587 407.138 179.175C407.377 179.763 407.776 180.27 408.29 180.639C406.48 180.779 404.4 179.834 402.66 179.351C402.519 179.291 402.368 179.26 402.215 179.26C402.062 179.26 401.911 179.291 401.77 179.351C401.596 179.474 401.471 179.656 401.42 179.864C401.293 180.337 401.276 180.832 401.37 181.313C401.529 182.769 402.067 184.157 402.93 185.337C404.278 187.102 406.182 188.354 408.33 188.888C409.911 189.194 411.53 189.256 413.13 189.069Z" fill="#263238"/>
<path d="M415.24 213.022C415.24 213.022 420.86 211.835 422.82 210.738C423.988 210.096 424.935 209.114 425.54 207.921C425.245 209.119 424.718 210.248 423.99 211.241C422.56 213.173 415.24 214.581 415.24 214.581V213.022Z" fill="#F28F8F"/>
<path d="M416.59 197.771C416.579 198.081 416.691 198.384 416.901 198.612C417.111 198.84 417.401 198.975 417.71 198.988C417.955 199.008 418.2 198.954 418.414 198.831C418.628 198.709 418.799 198.524 418.907 198.302C419.015 198.08 419.053 197.83 419.017 197.585C418.981 197.341 418.872 197.113 418.705 196.931C418.538 196.75 418.321 196.623 418.081 196.568C417.842 196.513 417.591 196.532 417.362 196.623C417.134 196.714 416.938 196.872 416.8 197.077C416.662 197.282 416.589 197.523 416.59 197.771Z" fill="#263238"/>
<path d="M418.39 192.892L420.8 194.29C420.975 193.945 421.015 193.547 420.911 193.174C420.807 192.801 420.568 192.481 420.24 192.278C420.08 192.188 419.903 192.132 419.721 192.114C419.539 192.097 419.355 192.117 419.181 192.175C419.006 192.233 418.846 192.326 418.71 192.45C418.574 192.573 418.465 192.724 418.39 192.892Z" fill="#263238"/>
<path d="M415.74 205.929L413.17 206.935C413.222 207.113 413.309 207.278 413.427 207.419C413.544 207.561 413.69 207.677 413.854 207.76C414.018 207.844 414.197 207.892 414.381 207.902C414.564 207.912 414.748 207.885 414.92 207.821C415.27 207.669 415.549 207.389 415.701 207.038C415.854 206.687 415.867 206.291 415.74 205.929Z" fill="#F28F8F"/>
<path d="M406.25 193.928L408.45 192.157C408.352 192.003 408.222 191.871 408.069 191.77C407.916 191.669 407.744 191.602 407.564 191.573C407.384 191.543 407.2 191.552 407.023 191.599C406.847 191.646 406.682 191.73 406.54 191.845C406.246 192.096 406.054 192.447 406.001 192.831C405.947 193.215 406.036 193.605 406.25 193.928Z" fill="#263238"/>
<path d="M407.22 197.439C407.237 197.659 407.318 197.869 407.452 198.044C407.587 198.218 407.769 198.35 407.976 198.422C408.184 198.495 408.407 198.505 408.62 198.451C408.833 198.397 409.026 198.283 409.175 198.121C409.324 197.959 409.423 197.756 409.46 197.539C409.497 197.321 409.47 197.097 409.382 196.895C409.295 196.692 409.151 196.52 408.967 196.398C408.784 196.277 408.569 196.212 408.35 196.211C408.195 196.217 408.043 196.253 407.903 196.317C407.762 196.382 407.635 196.474 407.53 196.588C407.425 196.702 407.344 196.836 407.29 196.982C407.237 197.128 407.213 197.283 407.22 197.439Z" fill="#263238"/>
<path d="M413.25 196.493L413.12 203.646L409.08 202.72L413.25 196.493Z" fill="#F28F8F"/>
<path d="M317.31 256.401L323.58 252.759L326.06 249.731L319.8 253.372L317.31 256.401Z" fill="#0B3178"/>
<path opacity="0.4" d="M317.31 256.401L323.58 252.759L326.06 249.731L319.8 253.372L317.31 256.401Z" fill="black"/>
<path d="M334.36 266.3L340.63 262.658L345.86 258L339.6 261.632L334.36 266.3Z" fill="#0B3178"/>
<path opacity="0.4" d="M334.36 266.3L340.63 262.658L345.86 258L339.6 261.632L334.36 266.3Z" fill="black"/>
<path d="M387.62 278.865C389.103 280.864 390 283.24 390.21 285.725C388.734 283.723 387.838 281.348 387.62 278.865ZM402.19 279.056C400.08 264.62 392.37 250.344 383.19 245.003C378.78 242.437 374.7 242.347 371.43 244.268L365.53 247.689L365.2 247.89C364.937 248.035 364.683 248.196 364.44 248.373C363.955 248.708 363.5 249.085 363.08 249.499L362.88 249.69C362.7 249.872 362.51 250.083 362.34 250.284C362.17 250.485 361.91 250.797 361.71 251.069C361.286 251.631 360.901 252.222 360.56 252.839C360.38 253.151 360.21 253.483 360.05 253.845L308.52 223.927L302.26 227.558V231.582L302.79 231.884L303.29 232.176V232.981L302.29 233.574V235.908L309.86 252.004L317.34 256.36L319.83 253.342L326.43 257.316L330.22 263.845L334.4 266.269L339.63 261.602L346.05 265.334L348.21 274.297L359 280.575C359.533 282.856 360.201 285.103 361 287.305C361.07 287.526 361.16 287.758 361.25 288.009C364.83 297.466 370.52 305.564 376.94 309.296C377.709 309.755 378.516 310.149 379.35 310.473C379.791 310.65 380.242 310.801 380.7 310.926C381.1 311.033 381.5 311.124 381.9 311.197C383.163 311.429 384.457 311.429 385.72 311.197L386.24 311.067C386.489 311.016 386.733 310.946 386.97 310.855L387.53 310.634C387.728 310.562 387.919 310.471 388.1 310.363C388.285 310.282 388.465 310.191 388.64 310.091L388.9 309.93C388.947 309.914 388.991 309.891 389.03 309.859C390.46 309.035 393.98 306.982 394.94 306.439C399.7 303.662 402.78 296.641 402.78 286.711C402.772 284.148 402.575 281.589 402.19 279.056Z" fill="#0B3178"/>
<path d="M385.79 291.047C383.31 289.609 381.31 285.343 381.31 281.52C381.31 277.698 383.31 275.756 385.79 277.185C388.27 278.613 390.26 282.889 390.26 286.721C390.26 290.554 388.26 292.486 385.79 291.047ZM395.92 282.687C393.82 268.261 386.11 253.976 376.92 248.644C372.66 246.17 368.72 245.988 365.52 247.689L365.19 247.89C364.927 248.035 364.673 248.197 364.43 248.373C363.945 248.708 363.49 249.085 363.07 249.499L362.87 249.691C362.69 249.872 362.5 250.083 362.33 250.284C362.16 250.485 361.9 250.797 361.7 251.069C361.276 251.631 360.891 252.223 360.55 252.839C360.37 253.151 360.2 253.483 360.04 253.845C359.108 255.79 358.435 257.85 358.04 259.972L302.25 227.558V231.582L302.78 231.884L303.28 232.176V232.981L302.28 233.574V235.908L309.85 252.004L317.33 256.36L319.82 253.342L326.42 257.316L330.21 263.845L334.39 266.269L339.62 261.602L346.04 265.334L348.2 274.297L359 280.575C359.533 282.856 360.201 285.103 361 287.305C361.07 287.526 361.16 287.758 361.25 288.009C364.83 297.466 370.52 305.564 376.94 309.296C377.709 309.755 378.516 310.149 379.35 310.473C379.791 310.65 380.242 310.801 380.7 310.926C381.1 311.033 381.5 311.124 381.9 311.198C383.163 311.429 384.457 311.429 385.72 311.198L386.24 311.067C386.489 311.016 386.733 310.946 386.97 310.855L387.53 310.634C387.728 310.562 387.919 310.471 388.1 310.363C388.285 310.282 388.465 310.191 388.64 310.091L388.9 309.93C388.947 309.914 388.991 309.891 389.03 309.86C393.59 306.962 396.52 300.041 396.52 290.353C396.503 287.787 396.303 285.225 395.92 282.687Z" fill="#0B3178"/>
<path opacity="0.4" d="M390.26 286.711C390.26 290.544 388.26 292.486 385.79 291.047C383.32 289.609 381.31 285.353 381.31 281.52C381.31 277.688 383.31 275.746 385.79 277.185C386.504 277.622 387.126 278.196 387.62 278.875C387.835 281.359 388.732 283.734 390.21 285.736C390.247 286.06 390.263 286.385 390.26 286.711Z" fill="black"/>
<path opacity="0.4" d="M402.76 286.701C402.76 296.631 399.68 303.653 394.92 306.429C393.92 306.972 390.44 309.025 389.01 309.85C393.57 306.952 396.5 300.031 396.5 290.343C396.489 287.781 396.296 285.222 395.92 282.687C393.82 268.261 386.11 253.976 376.92 248.644C372.66 246.17 368.72 245.988 365.52 247.689L371.42 244.268C374.69 242.347 378.77 242.437 383.18 245.003C392.37 250.344 400.08 264.62 402.18 279.056C402.561 281.586 402.755 284.142 402.76 286.701Z" fill="white"/>
<path d="M396.5 290.323C396.5 300.011 393.57 306.932 389.01 309.829C390.44 309.004 393.96 306.952 394.92 306.409C399.68 303.632 402.76 296.61 402.76 286.681C402.76 286.319 402.76 285.947 402.76 285.575L396.5 289.216C396.49 289.609 396.5 289.971 396.5 290.323Z" fill="#0B3178"/>
<path opacity="0.1" d="M396.5 290.323C396.5 300.011 393.57 306.932 389.01 309.829C390.44 309.004 393.96 306.952 394.92 306.409C399.68 303.632 402.76 296.61 402.76 286.681C402.76 286.319 402.76 285.947 402.76 285.575L396.5 289.216C396.49 289.609 396.5 289.971 396.5 290.323Z" fill="black"/>
<path opacity="0.15" d="M358.28 264.086V266.129L302.26 233.595L303.29 232.991V232.146L358.28 264.086Z" fill="black"/>
<path opacity="0.15" d="M358.28 264.932V266.129L302.26 233.594L303.29 232.991V232.981L358.28 264.932Z" fill="black"/>
<path opacity="0.15" d="M382.64 306.419C380.517 306.364 378.446 305.742 376.64 304.618C367.51 299.317 360.08 283.543 360.08 269.459C360.08 261.24 362.55 255.103 366.86 252.598C369.86 250.847 373.41 251.069 377.14 253.232C386.26 258.533 393.69 274.358 393.69 288.442C393.69 296.651 391.22 302.797 386.91 305.292C385.61 306.039 384.137 306.428 382.64 306.419ZM371.19 252.447C369.857 252.44 368.546 252.787 367.39 253.453C363.46 255.737 361.11 261.722 361.11 269.448C361.11 283.211 368.31 298.623 377.17 303.733C380.56 305.745 383.77 305.926 386.44 304.377C390.37 302.093 392.72 296.118 392.72 288.391C392.72 274.619 385.52 259.217 376.67 254.097C375.016 253.085 373.126 252.529 371.19 252.487V252.447Z" fill="black"/>
<path opacity="0.4" d="M360 253.825C359.068 255.77 358.395 257.83 358 259.952L302.21 227.538L308.47 223.907L360 253.825Z" fill="white"/>
<path d="M432.51 256.974C435.43 251.411 438.77 238.916 440.43 232.609C442.79 223.655 438.97 218.022 434.63 217.79C431.92 218.213 422.99 250.878 422.99 250.878C421.99 251.672 408.42 258.604 404.06 260.344C403.28 260.641 402.42 260.641 401.64 260.344C399.55 259.58 398.12 259.72 396.07 259.519C394.46 259.358 393.65 258.785 393.44 259.127C393.249 259.551 393.225 260.033 393.371 260.474C393.518 260.916 393.824 261.287 394.23 261.511C395.113 262.028 396.052 262.44 397.03 262.738C395.277 263.273 393.451 263.521 391.62 263.473C387.42 263.382 385.91 265.213 389.17 269.509C391.17 272.185 394.48 273.03 401.87 270.464C403.99 269.72 406.87 268.281 409.56 267.306C415.1 265.294 416.56 265.052 420.78 263.614C426.93 261.521 431.21 259.449 432.51 256.974Z" fill="#FFA8A7"/>
<path d="M433 216.945C435.55 217.297 438 217.871 439.51 219.963C441.02 222.056 442.23 224.993 440.75 232.991C439.617 238.615 438.1 244.155 436.21 249.57C436.21 249.57 430.27 252.125 423.96 245.646L428.3 228.766C428.3 228.766 429 217.79 433 216.945Z" fill="#455A64"/>
</svg>
